<?xml version="1.0" encoding="UTF-8" standalone="no"?>
<!-- Created with Inkscape (http://www.inkscape.org/) -->

<svg
   width="8.731246mm"
   height="8.6816359mm"
   viewBox="0 0 8.731246 8.6816359"
   version="1.1"
   id="svg857"
   inkscape:version="1.1 (c68e22c387, 2021-05-23)"
   sodipodi:docname="favicon.svg"
   xmlns:inkscape="http://www.inkscape.org/namespaces/inkscape"
   xmlns:sodipodi="http://sodipodi.sourceforge.net/DTD/sodipodi-0.dtd"
   xmlns="http://www.w3.org/2000/svg"
   xmlns:svg="http://www.w3.org/2000/svg">
  <sodipodi:namedview
     id="namedview859"
     pagecolor="#505050"
     bordercolor="#ffffff"
     borderopacity="1"
     inkscape:pageshadow="0"
     inkscape:pageopacity="0"
     inkscape:pagecheckerboard="1"
     inkscape:document-units="mm"
     showgrid="false"
     fit-margin-top="0"
     fit-margin-left="0"
     fit-margin-right="0"
     fit-margin-bottom="0"
     inkscape:zoom="14.674807"
     inkscape:cx="16.661207"
     inkscape:cy="16.456775"
     inkscape:window-width="1920"
     inkscape:window-height="1001"
     inkscape:window-x="-9"
     inkscape:window-y="-9"
     inkscape:window-maximized="1"
     inkscape:current-layer="layer1" />
  <defs
     id="defs854" />
  <g
     inkscape:label="Layer 1"
     inkscape:groupmode="layer"
     id="layer1"
     transform="translate(-171.87614,-109.07401)">
    <path
       id="rect928"
       style="fill:#0073cf;stroke-width:0"
       d="m 19.5,0.09375 a 1.5,1.5 0 0 0 -1.5,1.5 v 29.8125 a 1.5,1.5 0 0 0 1.5,1.5 1.5,1.5 0 0 0 1.5,-1.5 V 1.59375 a 1.5,1.5 0 0 0 -1.5,-1.5 z"
       transform="matrix(0.2645832,0,0,0.2645832,171.87614,109.04921)" />
    <path
       id="rect928-2-0-4"
       style="fill:#000000;fill-opacity:1;stroke-width:0"
       d="m 25.5,6.1894531 a 1.5,1.5 0 0 0 -1.5,1.5 V 25.501953 a 1.5,1.5 0 0 0 1.5,1.5 1.5,1.5 0 0 0 1.5,-1.5 V 7.6894531 a 1.5,1.5 0 0 0 -1.5,-1.5 z"
       transform="matrix(0.2645832,0,0,0.2645832,171.87614,109.04921)" />
    <path
       id="rect928-2-4-6"
       style="fill:#ffffff;fill-opacity:1;stroke-width:0"
       d="m 31.5,12.189453 a 1.5,1.5 0 0 0 -1.5,1.5 v 5.8125 a 1.5,1.5 0 0 0 1.5,1.5 1.5,1.5 0 0 0 1.5,-1.5 v -5.8125 a 1.5,1.5 0 0 0 -1.5,-1.5 z"
       transform="matrix(0.2645832,0,0,0.2645832,171.87614,109.04921)" />
    <path
       id="rect928-2-5"
       style="fill:#ffffff;fill-opacity:1;stroke-width:0"
       d="m 13.5,6.1894531 a 1.5,1.5 0 0 0 -1.5,1.5 V 25.5 A 1.5,1.5 0 0 0 13.5,27 1.5,1.5 0 0 0 15,25.5 V 7.6894531 a 1.5,1.5 0 0 0 -1.5,-1.5 z"
       transform="matrix(0.2645832,0,0,0.2645832,171.87614,109.04921)" />
    <path
       id="rect928-2-0-4-0"
       style="fill:#000000;fill-opacity:1;stroke-width:0"
       d="m 7.5,6.1894531 a 1.5,1.5 0 0 0 -1.5,1.5 V 25.5 A 1.5,1.5 0 0 0 7.5,27 1.5,1.5 0 0 0 9,25.5 V 7.6894531 a 1.5,1.5 0 0 0 -1.5,-1.5 z"
       transform="matrix(0.2645832,0,0,0.2645832,171.87614,109.04921)" />
    <path
       id="rect928-2-4-6-6"
       style="fill:#0073cf;stroke-width:0"
       d="m 1.5,12.189453 a 1.5,1.5 0 0 0 -1.5,1.5 V 19.5 A 1.5,1.5 0 0 0 1.5,21 1.5,1.5 0 0 0 3,19.5 v -5.810547 a 1.5,1.5 0 0 0 -1.5,-1.5 z"
       transform="matrix(0.2645832,0,0,0.2645832,171.87614,109.04921)" />
  </g>
</svg>
